<?xml version="1.0" standalone="no"?>
<!DOCTYPE svg PUBLIC "-//W3C//DTD SVG 20010904//EN" "http://www.w3.org/TR/2001/REC-SVG-20010904/DTD/svg10.dtd">
<svg version="1.0" xmlns="http://www.w3.org/2000/svg" width="2600.000000pt" height="2820.000000pt"
    viewBox="0 0 260.000000 282.000000" preserveAspectRatio="xMidYMid meet">
    <g transform="translate(0.000000,282.000000) scale(0.100000,-0.100000)" fill="#ffffff"
        stroke="none">
        <path
            d="M1815 2359 c-228 -33 -423 -175 -525 -384 -64 -130 -70 -166 -70 -447 0 -136 -2 -248 -5 -248 -3 0 -27 11 -53 25 -99 53 -227 18 -287 -80 -25 -41 -30 -58 -30 -114 0 -106 54 -180 156 -216 34 -12 109 -15 398 -15 317 0 365 2 436 19 159 39 272 106 391 234 80 86 127 160 161 254 49 134 53 180 53 553 l0 348 -26 31 c-14 17 -42 35 -62 41 -44 12 -451 11 -537 -1z m295 -206 c0 -15 -362 -370 -366 -359 -2 6 -3 86 -2 176 l3 165 50 11 c55 13 315 18 315 7z m-620 -638 l-70 -70 0 135 c0 198 30 309 107 401 l28 33 3 -214 2 -214 -70 -71z m748 288 c-2 -115 -7 -214 -11 -220 -6 -10 -60 -13 -213 -13 -112 0 -204 3 -204 6 0 10 414 434 423 434 5 0 8 -91 5 -207z m-88 -427 c0 -23 -71 -110 -130 -160 -67 -57 -155 -100 -235 -116 -36 -6 -137 -10 -251 -8 l-191 3 140 148 140 147 264 0 c219 0 263 -2 263 -14z" />
        <path
            d="M841 1664 c-113 -30 -144 -54 -427 -340 -306 -309 -324 -334 -332 -461 -7 -111 21 -190 101 -284 115 -134 350 -352 411 -382 103 -51 229 -51 334 -2 47 23 103 74 329 304 l273 276 -167 3 -167 3 -176 -175 c-96 -95 -185 -179 -197 -185 -28 -14 -83 -14 -120 0 -38 14 -342 316 -359 356 -17 39 -17 91 -1 119 7 12 118 131 247 264 158 164 248 249 275 261 30 14 65 19 143 19 l102 0 0 120 0 120 -107 -1 c-61 0 -132 -7 -162 -15z" />
    </g>
</svg>