<?xml version="1.0" standalone="no"?>
<!DOCTYPE svg PUBLIC "-//W3C//DTD SVG 20010904//EN"
 "http://www.w3.org/TR/2001/REC-SVG-20010904/DTD/svg10.dtd">
<svg version="1.0" xmlns="http://www.w3.org/2000/svg"
 width="1968.000000pt" height="1119.000000pt" viewBox="0 0 1968.000000 1119.000000"
 preserveAspectRatio="xMidYMid meet">
<metadata>
Created by potrace 1.10, written by Peter Selinger 2001-2011
</metadata>
<g transform="translate(0.000000,1119.000000) scale(0.100000,-0.100000)"
fill="#000000" stroke="none">
<path d="M3345 11110 c-79 -8 -163 -27 -218 -49 -16 -6 -41 -11 -57 -11 -54 0
-61 -57 -11 -92 56 -39 177 -217 274 -399 80 -151 119 -210 199 -301 79 -90
151 -128 301 -163 86 -19 130 -19 220 0 185 40 214 47 250 62 42 18 43 23 17
78 -11 22 -19 45 -20 51 0 18 -68 143 -116 216 -80 121 -232 260 -349 320 -80
42 -167 78 -185 78 -11 0 -37 6 -57 14 -21 8 -68 16 -105 19 -38 3 -78 12 -91
20 -13 8 -34 17 -48 19 -41 5 -17 23 31 22 321 -8 526 -62 720 -189 108 -72
189 -157 272 -288 16 -25 66 -145 81 -197 9 -30 24 -77 32 -103 8 -26 15 -58
15 -70 1 -21 1 -21 12 -3 7 13 9 59 4 145 -14 262 -112 473 -288 624 -62 53
-203 126 -293 152 -33 9 -78 23 -100 30 -49 17 -376 26 -490 15z"/>
<path d="M4918 10536 c-53 -19 -117 -48 -142 -67 -46 -33 -109 -107 -139 -164
-39 -74 -64 -198 -46 -227 7 -10 9 -9 9 4 0 30 67 163 108 215 56 70 212 173
263 173 11 0 30 5 42 11 20 12 145 30 217 33 31 1 35 -2 35 -24 0 -23 -3 -25
-50 -26 -74 0 -113 -10 -187 -48 -145 -73 -229 -155 -288 -281 -64 -137 -65
-132 45 -158 150 -36 263 -15 344 64 38 38 63 73 138 194 7 11 20 35 28 54 21
47 98 162 124 185 27 25 27 44 -1 55 -85 33 -141 41 -269 40 -125 0 -141 -3
-231 -33z"/>
<path d="M573 9733 c-19 -7 -19 -3998 -1 -4009 15 -10 793 -8 808 1 7 4 10
157 10 461 0 375 2 456 14 460 8 3 189 -171 478 -462 l465 -467 804 -2 c442
-1 814 0 827 2 l22 5 -2 1197 -3 1196 -886 3 -886 2 -402 -406 c-267 -269
-407 -404 -416 -400 -13 5 -15 166 -15 1210 0 1089 -2 1204 -16 1210 -19 7
-783 7 -801 -1z m2601 -1769 c3 -9 6 -455 6 -993 0 -776 -3 -981 -13 -995 -11
-15 -31 1 -186 161 -96 98 -318 322 -493 499 -193 195 -318 328 -318 339 0 12
123 142 314 335 173 173 392 395 486 493 95 97 178 177 185 177 7 0 16 -7 19
-16z"/>
<path d="M4195 9728 c-3 -7 -4 -913 -3 -2012 l3 -2000 396 1 c218 0 401 3 407
7 9 5 12 507 12 2006 0 1813 -1 1998 -16 2004 -9 3 -191 6 -405 6 -303 0 -391
-3 -394 -12z"/>
<path d="M3460 9571 c-120 -42 -202 -102 -275 -200 -101 -139 -102 -366 -2
-523 75 -117 208 -202 342 -219 164 -21 302 26 415 141 78 79 114 147 136 255
14 68 15 90 4 150 -23 129 -62 198 -164 292 -89 81 -178 116 -306 120 -73 2
-108 -2 -150 -16z"/>
<path d="M5465 9574 c-161 -62 -263 -150 -324 -279 -25 -54 -38 -182 -26 -265
29 -203 205 -376 409 -401 163 -21 302 26 414 139 100 102 142 203 142 342 0
136 -34 221 -129 323 -65 69 -126 107 -221 137 -77 24 -206 26 -265 4z"/>
<path d="M11460 8180 c-110 -6 -151 -13 -285 -47 -80 -20 -137 -44 -282 -115
-174 -85 -343 -228 -470 -397 -48 -64 -129 -220 -139 -268 -6 -29 -39 -72 -48
-62 -2 2 -9 58 -15 124 -21 219 -83 368 -203 491 -119 122 -258 192 -503 254
-85 21 -273 25 -337 6 -31 -9 -66 -16 -78 -16 -37 0 -171 -61 -255 -115 -84
-55 -175 -131 -262 -221 -29 -30 -54 -54 -56 -54 -3 0 -24 26 -47 58 -59 79
-168 182 -226 213 -145 79 -252 119 -314 119 -15 0 -47 7 -70 15 -89 31 -288
12 -460 -44 -80 -26 -189 -90 -261 -153 -30 -26 -65 -56 -78 -68 -47 -40 -55
-26 -61 100 l-5 115 -405 0 -405 0 -3 -1189 c-1 -727 2 -1194 7 -1199 9 -9
771 -17 799 -9 9 3 12 160 12 738 0 636 2 740 16 781 40 124 104 212 183 250
49 25 70 28 168 31 89 3 123 0 160 -14 108 -39 191 -131 235 -259 16 -46 17
-114 18 -782 0 -558 3 -734 12 -739 12 -8 806 -10 813 -2 3 2 6 346 8 764 l3
759 23 54 c44 106 99 161 200 201 67 26 223 28 297 4 61 -20 124 -68 167 -125
39 -53 53 -84 78 -169 18 -61 19 -110 19 -777 0 -392 3 -713 8 -714 37 -4 796
-3 803 2 6 3 10 164 9 407 0 273 3 403 10 407 16 10 37 -12 44 -45 9 -49 65
-160 124 -249 146 -222 398 -408 672 -498 84 -27 195 -53 230 -53 19 0 62 -7
95 -15 86 -21 370 -20 505 1 161 25 364 92 494 162 379 204 615 558 645 967
11 137 -2 343 -25 420 -53 177 -111 304 -186 405 -113 150 -306 313 -464 389
-49 24 -100 48 -114 55 -37 18 -214 72 -295 90 -81 17 -337 26 -505 16z m340
-708 c118 -43 226 -119 280 -197 100 -145 133 -302 99 -477 -38 -201 -206
-377 -404 -424 -203 -48 -408 5 -540 140 -33 34 -67 75 -75 91 -8 17 -19 37
-25 45 -19 25 -36 90 -49 185 -14 97 -3 232 24 305 67 179 260 331 445 350 85
9 192 1 245 -18z"/>
<path d="M5182 6919 l3 -1201 396 -1 c218 0 401 3 407 7 9 5 12 301 12 1186 0
648 -3 1185 -6 1194 -5 14 -51 16 -410 16 l-404 0 2 -1201z"/>
<path d="M4567 4844 c-4 -4 -7 -278 -7 -610 l0 -602 23 -5 c39 -9 709 1 719
11 5 5 8 36 6 68 l-3 59 -295 5 -295 5 -5 535 -5 535 -65 3 c-36 2 -69 0 -73
-4z"/>
<path d="M5760 4241 l0 -610 47 -7 c25 -4 58 -3 72 2 l26 9 0 605 0 605 -72 3
-73 3 0 -610z"/>
<path d="M6497 4843 c-4 -3 -7 -278 -7 -610 0 -475 3 -603 13 -604 57 -6 76
-7 100 -2 l27 5 0 464 c0 455 0 464 20 464 10 0 25 -10 31 -22 7 -13 37 -58
68 -100 31 -43 83 -116 116 -163 33 -48 94 -133 135 -191 41 -57 101 -141 133
-186 211 -300 187 -276 279 -274 l43 1 3 613 2 612 -70 0 c-49 0 -70 -4 -70
-12 0 -7 0 -211 0 -453 0 -528 3 -519 -84 -394 -31 46 -86 125 -121 174 -35
50 -77 108 -92 130 -15 22 -58 83 -95 135 -63 89 -105 148 -244 343 l-55 77
-63 0 c-34 0 -66 -3 -69 -7z"/>
<path d="M8037 4843 c-11 -10 -8 -1186 3 -1203 6 -10 27 -15 72 -15 l63 0 3
272 c2 259 3 273 22 283 12 6 75 9 161 8 l140 -3 36 -65 c19 -36 48 -86 64
-113 16 -26 29 -49 29 -51 0 -3 19 -37 43 -78 24 -40 46 -80 50 -88 7 -13 52
-92 83 -143 11 -19 106 -32 151 -21 l24 6 -32 56 c-17 30 -44 79 -60 109 -16
29 -40 71 -54 93 -14 22 -25 42 -25 45 0 2 -21 39 -46 82 -55 92 -124 218
-124 226 0 3 21 27 48 54 46 49 74 95 107 183 10 25 23 59 31 75 7 17 27 68
44 115 17 47 38 100 46 118 25 58 22 62 -60 62 -61 0 -75 -3 -81 -17 -4 -10
-33 -88 -65 -173 -79 -210 -84 -220 -122 -256 -67 -63 -137 -84 -278 -84 -141
0 -130 -23 -130 275 l0 255 -68 0 c-38 0 -72 -3 -75 -7z"/>
</g>
</svg>
