<svg xmlns="http://www.w3.org/2000/svg" version="1.0" viewBox="0 0 649 350">
    <path fill="#BFBFFF"
        d="M162.3.7c89.6.2 235.8.2 325 0 89.2-.1 16-.2-162.8-.2C145.8.5 72.8.6 162.3.7" />
    <g fill="transparent" stroke-width="0">
        <path
            d="M0 175.5V350h649V1H0zm187.3-170c8.8 2.3 14.7 5.7 20.8 12.1 8 8.4 10.1 14.5 10.7 30.2.4 12.6-.3 18.1-1.8 13.2-.5-1.4-.8-4.2-.9-6.2-.1-4.4-4.4-16.8-7.6-21.8-5.3-8.4-18.1-16.9-28-18.6-3.7-.6-3.4-.3 3.1 3 9.6 4.9 19.4 15.2 24 25.2 1.9 4 3.4 7.7 3.4 8.3 0 1.9-12.9 5.1-20.9 5.1-14.2 0-20.8-5.1-31.6-24.5-3.3-5.9-7.9-12.9-10.2-15.5-2.4-2.6-4.3-5.5-4.3-6.4 0-1.5 6-3.7 13-4.9 6.5-1.1 25-.6 30.3.8M257.7 31c7.8 1.7 8 2.1 4 7.6-1.9 2.7-4.4 6.9-5.7 9.2-1.2 2.4-4 6.4-6.2 8.8-5.9 6.4-11.8 7.5-22.5 4.3l-3.1-1 2-5c2.5-6 9.6-14.1 13.8-15.9 1.7-.7 2.9-1.5 2.6-1.7-.8-.9-9.8 4.1-12.8 7.1-3.9 3.9-6.7 10.1-7.5 16.6-1 8.8-2.6 5.7-2.1-4.3.3-7.9.8-10 3.1-14 6-10.1 19.8-14.8 34.4-11.7M66.8 129l.2 58.5 19.8-19.8 19.7-19.7 43.5.2 43.5.3v118l-40.5.3-40.5.2-22.7-22.7L67 221.6l-.2 22.4-.3 22.5h-41l-.3-98.3L25 70l20.7.2 20.8.3zm175.7 39.5v98h-41l-.3-97c-.1-53.4 0-97.6.3-98.3.3-1 5.1-1.2 20.7-1l20.3.3zm-59.8-89.8c5.4 2.4 11.1 8.1 13.4 13.2 6.6 14.9-4.6 32.5-21.6 33.9-8.7.7-19.3-5.6-23.6-13.9-2.4-4.9-2.6-16.1-.3-20.8 2.3-4.6 8-10 12.8-12.2 5.2-2.4 14.3-2.5 19.3-.2m97.4.2c5.3 2.4 11.3 8.3 13.4 13.3 2.1 5.1 1.9 13.4-.4 18.5-4 8.8-14 15.3-23.3 15.3-8.4 0-19.6-8.1-22.7-16.3-1.5-4-1.4-13.9.3-17.8 1.9-4.6 8.1-10.8 13-13 5.5-2.5 14.1-2.5 19.7 0m103.7 67.6c10.3 2.2 17.9 6.3 24.1 13.1l5.2 5.6 5.7-5.4c7.2-6.8 13.6-10.6 22.1-13 8-2.2 12-2.3 20.6-.3 10.2 2.4 17 5.9 23.4 12 6.9 6.6 9.9 12.7 10.8 22.1l.6 6.6 3.7-7.1c4.5-8.5 8.3-12.9 16.9-19.9 13.4-10.7 26.9-15.1 46.9-15.2 14.9 0 22.3 1.6 34.9 7.6 7.4 3.5 10.8 6 17.1 12.1 10.3 10.1 15.7 20.5 17.4 33.8 4.6 35.8-18.2 64.1-56.8 70.6-12.3 2-31.5-.2-43.4-5-14.2-5.8-26-16-32.3-27.9l-3.6-6.7-.1 17.2c0 9.4-.3 17.8-.6 18.7-.5 1.4-3.3 1.6-21 1.6h-20.3l-.3-36.8c-.3-35.8-.4-36.8-2.6-41.2-3.4-6.9-8-9.5-16.6-9.5-8.3 0-12.2 2.1-15.2 8.2-1.7 3.5-1.9 7-2.2 41.5l-.3 37.8H377v-33.3c0-41.2-.8-45.8-9.4-52.1-2.2-1.7-4.2-2.1-10-2.1-8.6 0-11.5 1.5-14.8 7.8-2.2 4.1-2.3 5.1-2.8 41.7l-.5 37.5h-41v-118h41l.3 5.8.3 5.8 5.7-4.5c7.3-5.6 11-7.5 18.6-9.1 8.1-1.8 10.8-1.8 19.4 0m-93.3 61v59h-41l-.3-58c-.1-31.9 0-58.6.3-59.3.3-1 5.1-1.2 20.7-1l20.3.3zm-28.5 110V335h9.5c9.5 0 9.5 0 9.5 2.5v2.5h-25v-40h6zm38 2.5v20h-6v-40h6zm32.5-5.7 10 14.2.5-14 .5-14 2.8-.3 2.7-.3V340h-2.8c-2.6 0-4-1.6-12.8-14.1l-9.9-14.1-.3 14.1-.3 14.1H317v-40h2.8c2.3 0 4 1.8 12.7 14.3m39.5-5.8v8.5h4.3c5.9 0 8.1-1.9 11.3-10 2.5-6.4 3-7 5.6-7 1.5 0 2.8.4 2.8.9 0 1.9-5.2 14.6-7.1 17.2l-1.9 2.7 5.4 9.4c5.4 9.3 5.4 9.3 2.9 9.6-4 .5-4.9-.2-9.4-8.7l-4.4-8.1H372v17h-6v-40h6z" />
        <path
            d="M128.4 180.6c-12.6 12.9-23 23.9-23.2 24.2-.1.4 10.4 11.3 23.3 24.2l23.5 23.5v-47.8c0-26.2-.2-47.7-.4-47.7s-10.6 10.6-23.2 23.6m425.8 1.6c-10.8 4.6-16.2 13-16.2 24.9.1 12.4 5.5 21.1 15.7 24.9 13.2 4.9 27.4-.5 33.9-13 1.3-2.6 1.8-5.7 1.8-12 .1-7.6-.2-9-2.8-13.3-6.8-11.5-20.8-16.4-32.4-11.5" />
    </g>
    <path fill="#BFBFBF"
        d="M146 13.5c1.3 1.4 2.6 2.5 2.8 2.5.3 0-.5-1.1-1.8-2.5s-2.6-2.5-2.8-2.5c-.3 0 .5 1.1 1.8 2.5m20.8-.8c.6.2 1.8.2 2.5 0 .6-.3.1-.5-1.3-.5s-1.9.2-1.2.5m9.2 1.4c0 .5.5.7 1 .4.6-.3 1-.8 1-1.1 0-.2-.4-.4-1-.4-.5 0-1 .5-1 1.1m27 12.4c1.3 1.4 2.6 2.5 2.8 2.5.3 0-.5-1.1-1.8-2.5s-2.6-2.5-2.8-2.5c-.3 0 .5 1.1 1.8 2.5m23.4 11.7-1.9 2.3 2.3-1.9c2.1-1.8 2.7-2.6 1.9-2.6-.2 0-1.2 1-2.3 2.2m-10.3 19.4c0 1.1.3 1.4.6.6.3-.7.2-1.6-.1-1.9-.3-.4-.6.2-.5 1.3m20.2 5.1c.9.2 2.3.2 3 0 .6-.3-.1-.5-1.8-.5-1.6 0-2.2.2-1.2.5M66.2 129.2c-.1 32.4.1 58.8.6 58.8.4 0 9.5-8.8 20.2-19.5l19.5-19.5 24-.2 24-.3-24-.2-23.9-.3-19.8 19.7L67 187.5l-.3-58.5-.2-58.5zM201.5 169v97.5h41V71l-.2 97.5-.3 97.5h-40l-.3-97.3-.2-97.2zm-33.7-91.3c.7.3 1.6.2 1.9-.1.4-.3-.2-.6-1.3-.5-1.1 0-1.4.3-.6.6m10 0c.7.3 1.6.2 1.9-.1.4-.3-.2-.6-1.3-.5-1.1 0-1.4.3-.6.6m87 0c.7.3 1.6.2 1.9-.1.4-.3-.2-.6-1.3-.5-1.1 0-1.4.3-.6.6m10 0c.7.3 1.6.2 1.9-.1.4-.3-.2-.6-1.3-.5-1.1 0-1.4.3-.6.6m-84.9 7c2.5 2.7 4.8 4.7 5 4.5.6-.3-8.1-9.2-9-9.2-.3 0 1.4 2.1 4 4.7m92.2-4.4c.2.1 1.5 1.1 2.9 2.2l2.5 2-1.9-2.3c-1.1-1.2-2.4-2.2-2.9-2.2q-.9 0-.6.3m-127.2 4.4c-1.3 1.6-1.2 1.7.4.4s2.1-2.1 1.3-2.1c-.2 0-1 .8-1.7 1.7M289.5 87c1 1.1 2 2 2.3 2s-.3-.9-1.3-2-2-2-2.3-2 .3.9 1.3 2M249 88.5c-.7.9-1.1 1.7-.9 2 .3.2 1-.5 1.7-1.5 1.4-2.4 1-2.6-.8-.5m-99.7 5c-.3.9-.3 1.8-.1 2.1.3.3.8-.4 1.1-1.6.6-2.3-.1-2.7-1-.5m47.2 7.5c0 4.3.3 7.3.7 6.7.4-.7.8-3.7.8-6.7s-.4-6-.8-6.7c-.4-.6-.7 2.4-.7 6.7m49.6-5.4c0 1.1.3 1.4.6.6.3-.7.2-1.6-.1-1.9-.3-.4-.6.2-.5 1.3m48 1c0 1.1.3 1.4.6.6.3-.7.2-1.6-.1-1.9-.3-.4-.6.2-.5 1.3m.1 8.4c0 1.4.2 1.9.5 1.2.2-.6.2-1.8 0-2.5-.3-.6-.5-.1-.5 1.3m-48.1 1.6c0 1.1.3 1.4.6.6.3-.7.2-1.6-.1-1.9-.3-.4-.6.2-.5 1.3m-97 .4c0 .8.4 2.2.9 3 1.2 1.8 1.2.2 0-2.5-.6-1.3-.9-1.5-.9-.5m43.8 7.7c-1.3 1.6-1.2 1.7.4.4.9-.7 1.7-1.5 1.7-1.7 0-.8-.8-.3-2.1 1.3m-40.9-.3c0 .2.8 1 1.8 1.7 1.5 1.3 1.6 1.2.3-.4s-2.1-2.1-2.1-1.3m101 4.1c1.3 1.4 2.6 2.5 2.8 2.5.3 0-.5-1.1-1.8-2.5s-2.6-2.5-2.8-2.5c-.3 0 .5 1.1 1.8 2.5m-63.1.2c-1.3 1.6-1.2 1.7.4.4.9-.7 1.7-1.5 1.7-1.7 0-.8-.8-.3-2.1 1.3m97 0c-1.3 1.6-1.2 1.7.4.4s2.1-2.1 1.3-2.1c-.2 0-1 .8-1.7 1.7m-5.5 3.9c-1.8 1.4-1.8 1.5.4.4 1.2-.6 2.2-1.3 2.2-1.5 0-.8-.5-.6-2.6 1.1m-98.4.4c-.9.6-1 1-.3 1 .6 0 1.5-.5 1.8-1 .8-1.2.4-1.2-1.5 0m-12.7 2.7c1.5.2 3.9.2 5.5 0 1.5-.2.2-.4-2.8-.4s-4.3.2-2.7.4m97 0c1.5.2 3.9.2 5.5 0 1.5-.2.2-.4-2.8-.4s-4.3.2-2.7.4m105 20c1.5.2 3.7.2 5 0 1.2-.2 0-.4-2.8-.4-2.7 0-3.8.2-2.2.4m76.5 0c1.8.2 4.5.2 6 0s0-.4-3.3-.4-4.5.2-2.7.4m103 0c1.2.2 3.2.2 4.5 0 1.2-.2.2-.4-2.3-.4s-3.5.2-2.2.4m21 0c1.2.2 3 .2 4 0 .9-.3-.1-.5-2.3-.4-2.2 0-3 .2-1.7.4m-208 1c.7.3 1.6.2 1.9-.1.4-.3-.2-.6-1.3-.5-1.1 0-1.4.3-.6.6m22 1c.7.3 1.6.2 1.9-.1.4-.3-.2-.6-1.3-.5-1.1 0-1.4.3-.6.6m-212 1 18.2.3v116.9l-15.7.4-15.8.3 16-.1h16v-118H175l-18.5-.1zm74.7.5c-.3.7-.4 27.4-.3 59.3l.3 58h41v-118l-20.3-.3c-15.6-.2-20.4 0-20.7 1m40.5 58.3V266h-40V149h40zm8.5-58.3c-.3.7-.4 27.4-.3 59.3l.3 58h20.3l20.2.1-20-.3-20-.3V149l20.3-.3 20.2-.2-20.3-.3c-15.5-.1-20.4.1-20.7 1m239.3-.5c.7.3 1.6.2 1.9-.1.4-.3-.2-.6-1.3-.5-1.1 0-1.4.3-.6.6m50.7.3c2.7 1.2 4.3 1.2 2.5 0-.8-.5-2.2-.9-3-.9-1 0-.8.3.5.9m5.5 2c.8.5 2 1 2.5 1 .6 0 .3-.5-.5-1s-1.9-1-2.5-1c-.5 0-.3.5.5 1m-64.5 1c-.3.6.1.7.9.4 1.8-.7 2.1-1.4.7-1.4-.6 0-1.3.4-1.6 1m-127 3c1 1.1 2 2 2.3 2s-.3-.9-1.3-2-2-2-2.3-2 .3.9 1.3 2m121 0c-.3.6.1.7.9.4 1.8-.7 2.1-1.4.7-1.4-.6 0-1.3.4-1.6 1m-103.1 3.2-2.9 3.3 3.3-2.9c3-2.8 3.7-3.6 2.9-3.6-.2 0-1.6 1.5-3.3 3.2m-272 1-2.9 3.3 3.3-2.9c3-2.8 3.7-3.6 2.9-3.6-.2 0-1.6 1.5-3.3 3.2m193 0-1.9 2.3 2.3-1.9c2.1-1.8 2.7-2.6 1.9-2.6-.2 0-1.2 1-2.3 2.2m265.6-1.8c0 .2.8 1 1.8 1.7 1.5 1.3 1.6 1.2.3-.4s-2.1-2.1-2.1-1.3m-199 3.1c1.3 1.4 2.6 2.5 2.8 2.5.3 0-.5-1.1-1.8-2.5s-2.6-2.5-2.8-2.5c-.3 0 .5 1.1 1.8 2.5m208.5 5.5c2.7 2.7 5.1 5 5.4 5s-1.7-2.3-4.4-5c-2.7-2.8-5.1-5-5.4-5s1.7 2.2 4.4 5M490 165c.6 1.1 1.3 2 1.6 2 .2 0 0-.9-.6-2s-1.3-2-1.6-2c-.2 0 0 .9.6 2m-78 .4c.7.7 1.3.7 2 0 .6-.6.3-1-1-1s-1.6.4-1 1m93.4 5.8-1.9 2.3 2.3-1.9c1.2-1.1 2.2-2.1 2.2-2.3 0-.8-.8-.2-2.6 1.9m-12.3-.2c0 .8.4 2.4.9 3.5.5 1.3.9 1.4.9.5 0-.8-.4-2.4-.9-3.5-.5-1.3-.9-1.4-.9-.5m-136.8 7.7c.9.2 2.3.2 3 0 .6-.3-.1-.5-1.8-.5-1.6 0-2.2.2-1.2.5m78 0c.9.2 2.3.2 3 0 .6-.3-.1-.5-1.8-.5-1.6 0-2.2.2-1.2.5m60.8.9c0 1.1.3 1.4.6.6.3-.7.2-1.6-.1-1.9-.3-.4-.6.2-.5 1.3m-132.3.1c.7.3 1.6.2 1.9-.1.4-.3-.2-.6-1.3-.5-1.1 0-1.4.3-.6.6m78 0c.7.3 1.6.2 1.9-.1.4-.3-.2-.6-1.3-.5-1.1 0-1.4.3-.6.6m-70.8 3.8c1.3 1.4 2.6 2.5 2.8 2.5.3 0-.5-1.1-1.8-2.5s-2.6-2.5-2.8-2.5c-.3 0 .5 1.1 1.8 2.5m76-2.1c0 .2.8 1 1.8 1.7 1.5 1.3 1.6 1.2.3-.4s-2.1-2.1-2.1-1.3m107 .6c-.8.5-1 1-.5 1 .6 0 1.7-.5 2.5-1s1.1-1 .5-1c-.5 0-1.7.5-2.5 1m-56.4 4.5c-.3.9-.6 2.2-.5 2.8 0 .7.5.1 1-1.2s.8-2.6.5-2.8c-.2-.2-.6.3-1 1.2m85.9 1.5c1 1.1 2 2 2.3 2s-.3-.9-1.3-2-2-2-2.3-2 .3.9 1.3 2M112 196.5c-4.6 4.6-8.2 8.6-7.9 8.7.2.2 4.2-3.6 8.8-8.4 4.7-4.9 8.3-8.8 8-8.8-.2 0-4.2 3.8-8.9 8.5m340-8c0 .5.5 1.7 1 2.5s1 1 1 .5c0-.6-.5-1.7-1-2.5s-1-1.1-1-.5m90.9 1.2c-1.3 1.6-1.2 1.7.4.4s2.1-2.1 1.3-2.1c-.2 0-1 .8-1.7 1.7m88.2.9c0 1.1.3 1.4.6.6.3-.7.2-1.6-.1-1.9-.3-.4-.6.2-.5 1.3m-291 2c0 1.1.3 1.4.6.6.3-.7.2-1.6-.1-1.9-.3-.4-.6.2-.5 1.3m35 0c0 1.1.3 1.4.6.6.3-.7.2-1.6-.1-1.9-.3-.4-.6.2-.5 1.3m43 0c0 1.1.3 1.4.6.6.3-.7.2-1.6-.1-1.9-.3-.4-.6.2-.5 1.3m167.9.4c.6 1.1 1.3 2 1.6 2 .2 0 0-.9-.6-2s-1.3-2-1.6-2c-.2 0 0 .9.6 2m-46 1c-.6 1.1-.8 2-.6 2 .3 0 1-.9 1.6-2s.8-2 .6-2c-.3 0-1 .9-1.6 2m-85.9 1.6c0 1.1.3 1.4.6.6.3-.7.2-1.6-.1-1.9-.3-.4-.6.2-.5 1.3m-77.9 1.4c0 1.4.2 1.9.5 1.2.2-.6.2-1.8 0-2.5-.3-.6-.5-.1-.5 1.3m257.1 10.5c0 3.8.2 5.3.4 3.2.2-2 .2-5.2 0-7-.2-1.7-.4-.1-.4 3.8m-96-.5c0 3 .2 4.3.4 2.7.2-1.5.2-3.9 0-5.5-.2-1.5-.4-.2-.4 2.8M129 230.5c12.4 12.4 22.7 22.5 23 22.5s-9.6-10.1-22-22.5-22.7-22.5-23-22.5 9.6 10.1 22 22.5m460.1-16.9c0 1.1.3 1.4.6.6.3-.7.2-1.6-.1-1.9-.3-.4-.6.2-.5 1.3m-50.1 5.3c0 .6.4 1.3 1 1.6s.7-.1.4-.9c-.7-1.8-1.4-2.1-1.4-.7M66 243.5V266l-20.2.3-20.3.3 20.5-.1h20.5l.3-22.5.2-22.4 22.8 22.7 22.8 22.7 20.4-.3 20.5-.2-20.5-.3-20.5-.2L90 243.5C77.6 231.1 67.2 221 66.8 221c-.5 0-.8 10.1-.8 22.5m515.9-16.8-3.4 3.8 3.8-3.4c3.4-3.3 4.2-4.1 3.4-4.1-.2 0-1.9 1.7-3.8 3.7m49.2-3c-.1.6-.4 2-.7 3-.5 1.7-.5 1.7.6 0 .6-1 .9-2.3.6-3-.3-.9-.5-.9-.5 0m-89.1.6c0 .2 1.5 1.6 3.3 3.3l3.2 2.9-2.9-3.3c-2.8-3-3.6-3.7-3.6-2.9M496.3 245l.1 20.5.6-18.5c.3-10.2.2-19.4-.2-20.5s-.6 7.2-.5 18.5m7.7-2.6c0 .2.8 1 1.8 1.7 1.5 1.3 1.6 1.2.3-.4s-2.1-2.1-2.1-1.3m111.9 7.3-3.4 3.8 3.8-3.4c3.4-3.3 4.2-4.1 3.4-4.1-.2 0-1.9 1.7-3.8 3.7M508 247.4c0 .2.8 1 1.8 1.7 1.5 1.3 1.6 1.2.3-.4s-2.1-2.1-2.1-1.3m100.9 8.3c-1.3 1.6-1.2 1.7.4.4s2.1-2.1 1.3-2.1c-.2 0-1 .8-1.7 1.7M602 260c-.9.6-1 1-.3 1 .6 0 1.5-.5 1.8-1 .8-1.2.4-1.2-1.5 0m-6 3c-.9.6-1 1-.3 1 .6 0 1.5-.5 1.8-1 .8-1.2.4-1.2-1.5 0m-58 3c.8.5 2.2.9 3 .9 1 0 .8-.3-.5-.9-2.7-1.2-4.3-1.2-2.5 0m-150.7.7c5.9.2 15.4.2 21 0 5.6-.1.8-.3-10.8-.3-11.5 0-16.1.2-10.2.3m78 0c5.9.2 15.4.2 21 0 5.6-.1.8-.3-10.8-.3-11.5 0-16.1.2-10.2.3m78.5 1c.7.3 1.6.2 1.9-.1.4-.3-.2-.6-1.3-.5-1.1 0-1.4.3-.6.6m39 0c.7.3 1.6.2 1.9-.1.4-.3-.2-.6-1.3-.5-1.1 0-1.4.3-.6.6m-31 1c.7.3 1.6.2 1.9-.1.4-.3-.2-.6-1.3-.5-1.1 0-1.4.3-.6.6m25 0c.7.3 1.6.2 1.9-.1.4-.3-.2-.6-1.3-.5-1.1 0-1.4.3-.6.6m-16.5 1c2.6.2 6.8.2 9.5 0 2.6-.2.4-.3-4.8-.3s-7.4.1-4.7.3m-302.1 31 2.8.4.3 17.2.3 17.2.2-17.8.2-17.7-3.2.1c-3 .2-3.1.2-.6.6m41.2 19.3c0 11.3.2 15.9.3 10.2.2-5.6.2-14.8 0-20.5-.1-5.6-.3-1-.3 10.3m18.9-19.3c.9.2 2.5.2 3.5 0 .9-.3.1-.5-1.8-.5s-2.7.2-1.7.5m25.4 0c-.4.3-.7 6.7-.7 14 0 9.3-.3 13.2-1.1 12.8-.6-.4-.5.2.3 1.4 1.1 1.8 1.3.1 1.6-12.8l.3-15 2.7-.4 2.7-.4-2.6-.2c-1.4 0-2.9.2-3.2.6m22.5 19.5.3 20.3.2-19.7.3-19.7 2.8-.4c2.5-.4 2.4-.4-.5-.6l-3.3-.1zm25.1-19.5c.9.2 2.5.2 3.5 0 .9-.3.1-.5-1.8-.5s-2.7.2-1.7.5m-4.4 19c-1.3 1.6-1.2 1.7.4.4s2.1-2.1 1.3-2.1c-.2 0-1 .8-1.7 1.7m-12.6 3c1.5.2 3.7.2 5 0 1.2-.2 0-.4-2.8-.4-2.7 0-3.8.2-2.2.4" />
    <path fill="#80BF40"
        d="M160.8 11.7c.7.3 1.6.2 1.9-.1.4-.3-.2-.6-1.3-.5-1.1 0-1.4.3-.6.6M195 26.5c1.9 1.9 3.6 3.5 3.9 3.5s-1-1.6-2.9-3.5-3.6-3.5-3.9-3.5 1 1.6 2.9 3.5m51.8 4.2c1.2.2 3 .2 4 0 .9-.3-.1-.5-2.3-.4-2.2 0-3 .2-1.7.4m.7 5.3c-.3.6.1.7.9.4 1.8-.7 2.1-1.4.7-1.4-.6 0-1.3.4-1.6 1m14.4.7c-1.3 1.6-1.2 1.7.4.4s2.1-2.1 1.3-2.1c-.2 0-1 .8-1.7 1.7m-33 7c-1.3 1.6-1.2 1.7.4.4.9-.7 1.7-1.5 1.7-1.7 0-.8-.8-.3-2.1 1.3m4 1c-1.3 1.6-1.2 1.7.4.4.9-.7 1.7-1.5 1.7-1.7 0-.8-.8-.3-2.1 1.3m-12.8 8.9c0 1.1.3 1.4.6.6.3-.7.2-1.6-.1-1.9-.3-.4-.6.2-.5 1.3m.6 8.1c-.4.3-.7 1.1-.7 1.7s.5.5 1.2-.2c.6-.6.9-1.4.7-1.7-.3-.3-.9-.2-1.2.2" />
    <path fill="#40BF40" d="M220.3 58.5c0 2.2.2 3 .4 1.7.2-1.2.2-3 0-4-.3-.9-.5.1-.4 2.3" />
    <path fill="#408000"
        d="M162 4.6c-10.9 2-17 3.8-17 5.2 0 .8 1.7 3.3 3.8 5.6 2.1 2.2 6.7 9.2 10.2 15.5 11.3 19.8 17.2 24.4 31 24.5 7.6 0 20-2.8 20-4.6 0-.5-1.6-4.3-3.5-8.5-7.1-15.4-25.6-29-40-29.4-1.6 0-3.9-.4-5-.9-3-1.3 10.9 0 18.5 1.6 21.4 4.8 34.5 19.7 36.9 42l.7 6.9.8-6.8c1.1-8.9-.7-20.6-4.3-28.2-4.8-10.3-14.4-17.9-26.6-21.1-5.3-1.5-21.3-2.6-25.5-1.8m75.5 28.2c-7.3 2.5-11 5.5-13.9 11.4-2 4-2.6 6.6-2.5 11.2l.1 6.1 1.3-5.3c2.8-11.8 13-19.7 26.5-20.7 5.8-.4 6-.3 1.9.4-10.1 1.9-19 8.7-23 17.5-2.6 5.8-2.4 6.2 2.5 7.5 12.6 3.2 17.5 0 27.5-18 1.7-3.1 3.8-6.2 4.6-6.9 2.4-2 1.8-2.6-3.6-3.8-7.1-1.7-15.5-1.4-21.4.6" />
    <path fill="gray"
        d="M25.5 71.2c-.3.7-.4 44.9-.3 98.3l.3 97 .3-97.7L26 71l20.3-.3 20.2-.2-20.3-.3c-15.5-.1-20.4.1-20.7 1m186.3-.5c5.6.2 14.8.2 20.5 0 5.6-.1 1-.3-10.3-.3s-15.9.2-10.2.3m-40 7c1.2.2 3 .2 4 0 .9-.3-.1-.5-2.3-.4-2.2 0-3 .2-1.7.4m97 0c1.2.2 3 .2 4 0 .9-.3-.1-.5-2.3-.4-2.2 0-3 .2-1.7.4m-15.9 7-2.4 2.8 2.8-2.4c2.5-2.3 3.2-3.1 2.4-3.1-.2 0-1.4 1.2-2.8 2.7m-99 2c-1.3 1.6-1.2 1.7.4.4.9-.7 1.7-1.5 1.7-1.7 0-.8-.8-.3-2.1 1.3m-4.8 10.9c0 1.1.3 1.4.6.6.3-.7.2-1.6-.1-1.9-.3-.4-.6.2-.5 1.3m97 1c0 1.1.3 1.4.6.6.3-.7.2-1.6-.1-1.9-.3-.4-.6.2-.5 1.3m48.1 2.4c0 1.4.2 1.9.5 1.2.2-.6.2-1.8 0-2.5-.3-.6-.5-.1-.5 1.3m-48.1 2.6c0 1.1.3 1.4.6.6.3-.7.2-1.6-.1-1.9-.3-.4-.6.2-.5 1.3m-97 1c0 1.1.3 1.4.6.6.3-.7.2-1.6-.1-1.9-.3-.4-.6.2-.5 1.3m39.8 14.1-2.4 2.8 2.8-2.4c2.5-2.3 3.2-3.1 2.4-3.1-.2 0-1.4 1.2-2.8 2.7m371.8 27c1.8.2 5 .2 7 0 2.1-.2.7-.4-3.2-.4-3.8 0-5.5.2-3.8.4m-102.9 1c.7.3 1.6.2 1.9-.1.4-.3-.2-.6-1.3-.5-1.1 0-1.4.3-.6.6m-118.5 7.8c0 3.3.2 4.5.4 2.7s.2-4.5 0-6-.4 0-.4 3.3m-187.1 49.4-.2 49.4-2.7-2.3-2.8-2.4 2.7 2.9c1.5 1.6 3 2.7 3.3 2.4s.4-22.8.2-50l-.2-49.4zm192.7-47.2c-1.3 1.6-1.2 1.7.4.4s2.1-2.1 1.3-2.1c-.2 0-1 .8-1.7 1.7m140.1 2.8c1.9 1.9 3.6 3.5 3.9 3.5s-1-1.6-2.9-3.5-3.6-3.5-3.9-3.5 1 1.6 2.9 3.5m25.9 6.2-3.4 3.8 3.8-3.4c3.4-3.3 4.2-4.1 3.4-4.1-.2 0-1.9 1.7-3.8 3.7m-373 4c-1.3 1.6-1.2 1.7.4.4.9-.7 1.7-1.5 1.7-1.7 0-.8-.8-.3-2.1 1.3m482.1.7c0 .2.8 1 1.8 1.7 1.5 1.3 1.6 1.2.3-.4s-2.1-2.1-2.1-1.3m-497 14.3-12.5 12.8 12.8-12.5c7-6.9 12.7-12.6 12.7-12.7 0-.8-1.4.6-13 12.4m229.8-6c.7.3 1.6.2 1.9-.1.4-.3-.2-.6-1.3-.5-1.1 0-1.4.3-.6.6m8 0c.7.3 1.6.2 1.9-.1.4-.3-.2-.6-1.3-.5-1.1 0-1.4.3-.6.6m78 0c.7.3 1.6.2 1.9-.1.4-.3-.2-.6-1.3-.5-1.1 0-1.4.3-.6.6m-93.9 4c-1.3 1.6-1.2 1.7.4.4s2.1-2.1 1.3-2.1c-.2 0-1 .8-1.7 1.7m150.3.3c0 1.4.2 1.9.5 1.2.2-.6.2-1.8 0-2.5-.3-.6-.5-.1-.5 1.3m-47.2-.6c0 .2.8 1 1.8 1.7 1.5 1.3 1.6 1.2.3-.4s-2.1-2.1-2.1-1.3m95.9 5.3c-1.3 1.6-1.2 1.7.4.4s2.1-2.1 1.3-2.1c-.2 0-1 .8-1.7 1.7M339.5 230c0 20.1.1 28.3.2 18.3.2-10.1.2-26.5 0-36.5-.1-10.1-.2-1.9-.2 18.2m292.6-33.4c0 1.1.3 1.4.6.6.3-.7.2-1.6-.1-1.9-.3-.4-.6.2-.5 1.3M455.4 232c0 17.9.2 25.2.3 16.2.2-8.9.2-23.5 0-32.5-.1-8.9-.3-1.6-.3 16.3m134.8-28c0 1.4.2 1.9.5 1.2.2-.6.2-1.8 0-2.5-.3-.6-.5-.1-.5 1.3m0 6c0 1.4.2 1.9.5 1.2.2-.6.2-1.8 0-2.5-.3-.6-.5-.1-.5 1.3m41.9 7.6c0 1.1.3 1.4.6.6.3-.7.2-1.6-.1-1.9-.3-.4-.6.2-.5 1.3m-71.3 17.1c1.2.2 3 .2 4 0 .9-.3-.1-.5-2.3-.4-2.2 0-3 .2-1.7.4m59.1 10c-1.3 1.6-1.2 1.7.4.4s2.1-2.1 1.3-2.1c-.2 0-1 .8-1.7 1.7M510 248.5c1.9 1.9 3.6 3.5 3.9 3.5s-1-1.6-2.9-3.5-3.6-3.5-3.9-3.5 1 1.6 2.9 3.5m-354.7 18.2c1.5.2 3.7.2 5 0 1.2-.2 0-.4-2.8-.4-2.7 0-3.8.2-2.2.4m391.5 1c.7.3 1.6.2 1.9-.1.4-.3-.2-.6-1.3-.5-1.1 0-1.4.3-.6.6m27 1c.7.3 1.6.2 1.9-.1.4-.3-.2-.6-1.3-.5-1.1 0-1.4.3-.6.6m-278 32c.6.2 1.8.2 2.5 0 .6-.3.1-.5-1.3-.5s-1.9.2-1.2.5m21.6 19.8c0 11 .2 15.6.3 10.3.2-5.3.2-14.3 0-20-.1-5.7-.3-1.3-.3 9.7m5 4.5c0 8.5.2 12 .3 7.7.2-4.2.2-11.2 0-15.5-.1-4.2-.3-.7-.3 7.8m51.4-7.3c1.2.2 3.2.2 4.5 0 1.2-.2.2-.4-2.3-.4s-3.5.2-2.2.4" />
    <path
        d="M26 168.5V266h40v-23c0-12.7.4-23 .8-23 .5 0 11.1 10.3 23.6 23l22.8 23H193V149h-85.5l-20.7 20.7L66 190.5V71H26zm127 36.2v50.8l-25.2-25.3-25.2-25.3 15.6-15.7c8.6-8.6 19.8-20.1 24.9-25.5 5.1-5.3 9.4-9.7 9.6-9.7s.3 22.8.3 50.7m49-36.2V266h40V71h-40zm-35-89.6c-10.7 3.3-17 11.6-17 22.3.1 23.7 31.5 31.9 43.5 11.3 5.6-9.5 4.2-19.2-4-27.2-6.9-6.7-14.5-8.8-22.5-6.4m95.6.5c-9 3.4-14.8 10.7-15.4 19.7-.5 7.2 1.1 12.1 5.7 17.2 11.1 12.3 30.7 10 38.4-4.7 2.7-5.2 3-15.6.5-20.2-2.1-3.8-7.4-9.1-11.2-11.1-4.2-2.2-13.3-2.6-18-.9m180.6 68.3c-8.7 1.6-16.5 6-24.7 13.8-4.9 4.8-6.1 5.4-7 4.2-7.8-10.7-16.6-16.1-29.4-17.9-15-2.2-27.3 1.1-37.1 9.9-2.6 2.3-5 4-5.4 3.6-.3-.3-.6-3.3-.6-6.5V149h-40v117h40v-36.5c0-39.2.2-40.9 5.3-46.3 3.5-3.8 7.2-5.2 13.4-5.2 7.3 0 11.9 2.2 15.5 7.5 4.3 6.2 4.9 12.2 4.6 47.9l-.3 32.6H417v-36.4c0-38.7.2-40.9 4.9-45.9 3.8-4.2 7.4-5.7 13.5-5.7 9.5 0 14.2 2.9 18.2 11.5 2.4 5 2.4 5.3 2.4 40.7V266h39.5l-.3-20.1c-.2-11.1 0-20.9.3-21.8.5-1.1 1.3 0 2.9 3.9 4.6 11.9 9.4 18.4 18.4 25.3 10.9 8.4 20.2 12 36 14.1 20.2 2.6 38.7-1.2 53.4-11 12.1-8.1 20.9-20 24.3-32.9 1.7-6.7 2-24.7.5-31.3-2.1-9-7.1-17.4-15.6-26-7-7-9.6-8.9-17.5-12.6-26.7-12.4-58.7-9.4-80.5 7.6-9.4 7.3-15.1 15-19.2 26-2.3 6.1-2.6 5.6-4.1-6.4-.6-5.6-1.9-10.5-3.5-13.6-5.7-11.2-18.8-18.5-37.1-20.5-1.7-.1-6.3.3-10.3 1M573.5 181c7.4 3.2 11.2 6.7 14.6 13.6 2.9 5.9 3.1 7 2.7 14.1-.6 9.3-2.9 14.5-8.9 19.7-10.9 9.3-30 8.4-38.7-1.9-7.1-8.4-8.8-22.5-3.9-32.2 6.4-12.5 21.9-18.6 34.2-13.3M250 207.5V266h40V149h-40zm7 113V340h11.5c10.8 0 11.5-.1 11.5-2s-.7-2-9.5-2H261v-17.5c0-16.8-.1-17.5-2-17.5s-2 .7-2 19.5m38 0c0 18.8.1 19.5 2 19.5s2-.7 2-19.5-.1-19.5-2-19.5-2 .7-2 19.5m23 0c0 18.7.1 19.5 2 19.5 1.8 0 2-.8 2.2-15.7l.3-15.8 11 15.8c7 10 11.6 15.7 12.8 15.7 1.6 0 1.7-1.6 1.7-19.5 0-18.8-.1-19.5-2-19.5s-2 .7-2 15.7v15.7l-11.1-15.7c-15-21.4-14.9-21.4-14.9 3.8m49 0c0 18.8.1 19.5 2 19.5s2-.7 2-9v-9h10.8l5.2 9c4.2 7.4 5.6 9 7.5 9 2.3 0 2.2-.4-3-9.4-3-5.2-5.5-9.8-5.5-10.2s.8-1.7 1.8-2.8c1.6-1.8 7.2-14.4 7.2-16.2 0-.3-1-.4-2.1-.2-1.7.2-2.8 2-4.8 7.3-3.1 8-5 9.5-12.3 9.5H371v-8.5c0-7.8-.2-8.5-2-8.5-1.9 0-2 .7-2 19.5" />
    <path fill="#404040"
        d="M187 82.3c0 .2 1.5 1.6 3.3 3.3l3.2 2.9-2.9-3.3c-2.8-3-3.6-3.7-3.6-2.9M149.2 101c0 1.4.2 1.9.5 1.2.2-.6.2-1.8 0-2.5-.3-.6-.5-.1-.5 1.3m3.8 13.4c0 .2.8 1 1.8 1.7 1.5 1.3 1.6 1.2.3-.4s-2.1-2.1-2.1-1.3m98 .9c0 .2 1.5 1.6 3.3 3.3l3.2 2.9-2.9-3.3c-2.8-3-3.6-3.7-3.6-2.9m-82.2 9.4c.7.3 1.6.2 1.9-.1.4-.3-.2-.6-1.3-.5-1.1 0-1.4.3-.6.6m7 0c.7.3 1.6.2 1.9-.1.4-.3-.2-.6-1.3-.5-1.1 0-1.4.3-.6.6m90 0c.6.2 1.8.2 2.5 0 .6-.3.1-.5-1.3-.5s-1.9.2-1.2.5m7 0c.7.3 1.6.2 1.9-.1.4-.3-.2-.6-1.3-.5-1.1 0-1.4.3-.6.6m97 22c.7.3 1.6.2 1.9-.1.4-.3-.2-.6-1.3-.5-1.1 0-1.4.3-.6.6m5.5 0c.9.2 2.3.2 3 0 .6-.3-.1-.5-1.8-.5-1.6 0-2.2.2-1.2.5m71 0c.9.2 2.3.2 3 0 .6-.3-.1-.5-1.8-.5-1.6 0-2.2.2-1.2.5m7 0c.9.2 2.3.2 3 0 .6-.3-.1-.5-1.8-.5-1.6 0-2.2.2-1.2.5m-89.5 1c.6.2 1.8.2 2.5 0 .6-.3.1-.5-1.3-.5s-1.9.2-1.2.5m18 0c.7.3 1.6.2 1.9-.1.4-.3-.2-.6-1.3-.5-1.1 0-1.4.3-.6.6m164 0c.7.3 1.6.2 1.9-.1.4-.3-.2-.6-1.3-.5-1.1 0-1.4.3-.6.6m35 0c.7.3 1.6.2 1.9-.1.4-.3-.2-.6-1.3-.5-1.1 0-1.4.3-.6.6M86.5 169.2l-20 20.3 20.3-20c18.8-18.6 20.7-20.5 19.9-20.5-.1 0-9.2 9.1-20.2 20.2m59.9-9-2.9 3.3 3.3-2.9c3-2.8 3.7-3.6 2.9-3.6-.2 0-1.6 1.5-3.3 3.2m274.5-1.5c-1.3 1.6-1.2 1.7.4.4.9-.7 1.7-1.5 1.7-1.7 0-.8-.8-.3-2.1 1.3m95 3c-1.3 1.6-1.2 1.7.4.4s2.1-2.1 1.3-2.1c-.2 0-1 .8-1.7 1.7m99.6 4.3c2.1 2.2 4.1 4 4.4 4s-1.3-1.8-3.4-4-4.1-4-4.4-4 1.3 1.8 3.4 4m-203.5.4c.7.7 1.3.7 2 0 .6-.6.3-1-1-1s-1.6.4-1 1m82.2 13.1c0 1.6.2 2.2.5 1.2.2-.9.2-2.3 0-3-.3-.6-.5.1-.5 1.8m65.1.2c.9.2 2.3.2 3 0 .6-.3-.1-.5-1.8-.5-1.6 0-2.2.2-1.2.5m6 0c.9.2 2.5.2 3.5 0 .9-.3.1-.5-1.8-.5s-2.7.2-1.7.5M370 182.5c1.3 1.4 2.6 2.5 2.8 2.5.3 0-.5-1.1-1.8-2.5s-2.6-2.5-2.8-2.5c-.3 0 .5 1.1 1.8 2.5m125.2 5c0 1.6.2 2.2.5 1.2.2-.9.2-2.3 0-3-.3-.6-.5.1-.5 1.8m86.8-1.1c0 .2.8 1 1.8 1.7 1.5 1.3 1.6 1.2.3-.4s-2.1-2.1-2.1-1.3M417.5 229c0 20.6.1 29.1.2 18.8.2-10.4.2-27.2 0-37.5-.1-10.4-.2-1.9-.2 18.7m37.7-32c0 1.9.2 2.7.5 1.7.2-.9.2-2.5 0-3.5-.3-.9-.5-.1-.5 1.8m177.2 10c0 5.2.1 7.4.3 4.7.2-2.6.2-6.8 0-9.5-.2-2.6-.3-.4-.3 4.8m-255 25c0 18.4.2 26 .3 16.7.2-9.2.2-24.2 0-33.5-.1-9.2-.3-1.6-.3 16.8m158.8-25c0 1.4.2 1.9.5 1.2.2-.6.2-1.8 0-2.5-.3-.6-.5-.1-.5 1.3M129 231.5c8 8 14.7 14.5 15 14.5.2 0-6-6.5-14-14.5S115.3 217 115 217c-.2 0 6 6.5 14 14.5M83.5 237c9.3 9.3 17.2 17 17.5 17s-7.2-7.7-16.5-17c-9.3-9.4-17.2-17-17.5-17s7.2 7.6 16.5 17m498.9-9.8-2.9 3.3 3.3-2.9c1.7-1.7 3.2-3.1 3.2-3.3 0-.8-.8-.1-3.6 2.9m-38.4.3c1.3 1.4 2.6 2.5 2.8 2.5.3 0-.5-1.1-1.8-2.5s-2.6-2.5-2.8-2.5c-.3 0 .5 1.1 1.8 2.5m22.8 7.2c.7.3 1.6.2 1.9-.1.4-.3-.2-.6-1.3-.5-1.1 0-1.4.3-.6.6m48.6 14.5-2.9 3.3 3.3-2.9c1.7-1.7 3.2-3.1 3.2-3.3 0-.8-.8-.1-3.6 2.9M515 252.4c0 .2.8 1 1.8 1.7 1.5 1.3 1.6 1.2.3-.4s-2.1-2.1-2.1-1.3m28.8 14.3c.7.3 1.6.2 1.9-.1.4-.3-.2-.6-1.3-.5-1.1 0-1.4.3-.6.6m6 1c.6.2 1.8.2 2.5 0 .6-.3.1-.5-1.3-.5s-1.9.2-1.2.5m27 0c.6.2 1.8.2 2.5 0 .6-.3.1-.5-1.3-.5s-1.9.2-1.2.5m-19.5 1c.9.2 2.3.2 3 0 .6-.3-.1-.5-1.8-.5-1.6 0-2.2.2-1.2.5m11 0c.9.2 2.5.2 3.5 0 .9-.3.1-.5-1.8-.5s-2.7.2-1.7.5m-311.9 51.8c0 11 .2 15.6.3 10.3.2-5.3.2-14.3 0-20-.1-5.7-.3-1.3-.3 9.7m38 0c0 11 .2 15.6.3 10.3.2-5.3.2-14.3 0-20-.1-5.7-.3-1.3-.3 9.7m54 0c0 11 .2 15.6.3 10.3.2-5.3.2-14.3 0-20-.1-5.7-.3-1.3-.3 9.7m23-11c0 4.9.1 7.1.3 4.8s.2-6.4 0-9-.3-.8-.3 4.2m15.5 9.2c-1.3 1.6-1.2 1.7.4.4.9-.7 1.7-1.5 1.7-1.7 0-.8-.8-.3-2.1 1.3M371.4 331c0 5.2.1 7.4.3 4.7.2-2.6.2-6.8 0-9.5-.2-2.6-.3-.4-.3 4.8m-105.6 4.7c2.9.2 7.4.2 10 0s.2-.3-5.3-.3-7.6.1-4.7.3" />
    <path fill="#400000" d="M495.4 244c0 11.3.2 15.9.3 10.2.2-5.6.2-14.8 0-20.5-.1-5.6-.3-1-.3 10.3" />
    <path fill="#BF80BF" d="M280.2 338c0 1.4.2 1.9.5 1.2.2-.6.2-1.8 0-2.5-.3-.6-.5-.1-.5 1.3" />
</svg>