<svg version="1.0" xmlns="http://www.w3.org/2000/svg" width="900.000000pt" height="486.000000pt"
    viewBox="0 0 900.000000 486.000000" preserveAspectRatio="xMidYMid meet">
    <g transform="translate(0.000000,486.000000) scale(0.100000,-0.100000)" fill="#000000"
        stroke="none">
        <path
            d="M2210 4775 c-118 -22 -198 -46 -204 -61 -3 -8 15 -35 42 -63 42 -44 146 -206 189 -293 27 -56 89 -141 130 -179 86 -83 233 -118 360 -88 72 17 148 40 161 48 13 8 -16 87 -55 154 -13 21 -23 41 -23 45 0 4 -24 36 -53 72 -62 76 -147 147 -214 179 -26 12 -55 26 -63 30 -9 5 -31 12 -50 16 -19 4 -45 16 -57 27 -14 13 -28 18 -42 13 -12 -3 -31 -3 -43 1 -22 7 -22 7 -3 14 20 7 142 -9 240 -31 139 -32 290 -135 362 -248 47 -73 102 -212 109 -277 4 -32 11 -51 17 -47 14 8 1 201 -19 271 -74 268 -273 408 -604 426 -70 3 -130 1 -180 -9z" />
        <path
            d="M3320 4401 c-89 -24 -109 -34 -156 -74 -70 -61 -140 -230 -104 -252 6 -3 10 -1 10 5 0 29 52 120 92 160 69 69 114 95 190 109 44 8 46 7 35 -11 -7 -10 -30 -27 -53 -38 -58 -29 -139 -114 -174 -184 -36 -73 -37 -82 -9 -96 32 -17 158 -24 206 -11 52 14 115 83 164 178 19 36 53 93 77 126 23 34 39 64 35 68 -13 13 -155 39 -203 38 -25 0 -74 -9 -110 -18z" />
        <path
            d="M352 2513 l3 -1348 270 0 270 0 3 308 c2 292 3 307 21 307 11 0 139 -123 324 -310 l305 -310 554 2 553 3 0 805 0 805 -590 3 -590 2 -270 -270 c-152 -152 -277 -270 -287 -270 -17 0 -18 40 -20 808 l-3 807 -273 3 -272 2 2 -1347z m1758 -503 c0 -640 -1 -670 -18 -670 -10 0 -85 69 -172 158 -85 86 -230 234 -322 328 -92 94 -168 176 -168 181 0 16 653 674 668 673 9 0 12 -141 12 -670z" />
        <path
            d="M2795 3848 c-3 -7 -4 -614 -3 -1348 l3 -1335 275 0 275 0 0 1345 0 1345 -273 3 c-213 2 -274 0 -277 -10z" />
        <path
            d="M2281 3750 c-61 -22 -70 -28 -129 -88 -109 -111 -118 -282 -22 -410 187 -247 567 -130 588 181 4 72 2 82 -27 142 -78 158 -251 232 -410 175z" />
        <path
            d="M3620 3747 c-80 -31 -170 -124 -194 -201 -36 -115 -5 -243 81 -331 19 -19 64 -49 100 -66 59 -28 74 -31 142 -27 93 4 174 41 231 106 122 138 119 315 -9 442 -97 97 -227 125 -351 77z" />
        <path
            d="M7645 2814 c-60 -7 -120 -18 -133 -24 -13 -5 -31 -10 -40 -10 -30 0 -235 -106 -292 -150 -143 -113 -231 -230 -290 -385 -15 -40 -26 -22 -34 54 -13 149 -56 250 -140 339 -28 28 -54 52 -58 52 -5 0 -27 14 -50 30 -22 17 -47 30 -54 30 -7 0 -25 6 -41 14 -65 33 -141 46 -259 46 -199 0 -293 -42 -471 -211 -35 -32 -67 -59 -73 -59 -5 0 -16 13 -24 28 -26 50 -131 138 -208 175 -114 54 -135 59 -275 64 -117 5 -139 3 -205 -17 -40 -13 -86 -31 -103 -42 -16 -10 -37 -21 -45 -25 -8 -4 -40 -28 -71 -55 -30 -26 -61 -48 -67 -48 -16 0 -24 34 -21 90 2 28 -2 55 -7 60 -7 7 -107 9 -275 8 l-264 -3 -3 -807 -2 -808 275 0 c213 0 275 3 275 13 0 6 1 237 3 512 2 500 2 500 25 548 59 122 166 169 312 135 63 -14 116 -58 155 -129 l30 -54 5 -510 5 -510 275 0 275 0 5 520 c5 556 4 539 57 611 67 91 251 110 354 36 41 -30 92 -100 104 -147 5 -16 11 -253 14 -525 l6 -495 270 0 270 0 3 270 c2 260 9 320 31 262 11 -28 64 -138 86 -177 27 -48 128 -152 199 -205 144 -108 291 -163 494 -186 168 -19 398 3 512 49 14 6 49 20 79 32 175 71 368 254 436 415 74 176 90 412 39 585 -64 215 -229 405 -439 505 -151 72 -187 82 -340 100 -141 17 -164 17 -310 -1z m275 -471 c125 -47 200 -119 244 -236 28 -75 20 -234 -17 -308 -48 -98 -145 -176 -247 -198 -215 -46 -398 57 -453 255 -55 199 26 384 208 470 59 27 82 33 145 33 47 1 91 -5 120 -16z" />
        <path
            d="M3465 2768 c-3 -7 -4 -371 -3 -808 l3 -795 270 0 270 0 0 805 0 805 -268 3 c-209 2 -269 0 -272 -10z" />
        <path
            d="M3555 658 c-3 -7 -4 -126 -3 -263 l3 -250 141 -5 c170 -6 174 -5 174 26 l0 24 -119 0 c-86 0 -122 4 -130 13 -7 9 -12 93 -13 238 -3 224 -3 224 -26 227 -12 2 -24 -3 -27 -10z" />
        <path
            d="M4076 654 c-3 -9 -6 -125 -6 -259 0 -223 2 -245 18 -253 41 -21 42 -12 42 264 l0 264 -24 0 c-13 0 -27 -7 -30 -16z" />
        <path
            d="M4407 664 c-4 -4 -7 -123 -7 -265 0 -269 2 -278 43 -257 15 8 17 28 17 198 0 145 3 190 13 190 11 0 42 -43 209 -283 64 -92 96 -121 121 -111 16 6 17 28 15 268 l-3 261 -25 0 -25 0 -3 -195 c-1 -107 -6 -198 -10 -202 -4 -4 -46 47 -92 114 -151 216 -204 283 -225 286 -12 2 -24 0 -28 -4z" />
        <path
            d="M5085 648 c-3 -13 -4 -131 -3 -263 l3 -240 28 -3 27 -3 0 105 c0 57 3 111 6 120 5 12 21 16 70 16 63 0 64 0 89 -40 14 -22 42 -71 62 -111 21 -39 47 -77 59 -85 21 -14 54 -10 54 7 0 5 -27 54 -60 110 -72 121 -77 137 -53 169 31 42 79 151 88 204 6 32 5 36 -13 36 -24 0 -52 -25 -52 -45 0 -33 -56 -143 -85 -167 -28 -24 -150 -25 -159 -2 -3 9 -6 60 -6 115 0 99 0 99 -25 99 -17 0 -26 -7 -30 -22z" />
    </g>
</svg> 