<svg xmlns="http://www.w3.org/2000/svg" version="1.0" viewBox="0 0 656 373"><path d="M163.5 3.1c-9.4 1.5-15.7 3.3-16.2 4.6-.3.7 1.5 3.5 3.9 6.1s7.3 9.8 10.8 16 7.9 13 9.6 15.1c4.6 5.3 11.9 8.3 20.3 8.2 6.4-.1 17.8-2.4 19.4-4 1.2-1.2-6.7-16.3-11.4-21.5-7.8-8.8-23-16.6-32.5-16.6-1.6 0-3.6-.5-4.4-1.1-1.1-.7.7-.8 6-.4 15.1 1.3 25.6 4.9 34.4 11.8 8.3 6.6 15.5 21.9 15.7 33.8l.1 5.4.9-5.5c1.7-10.7-1.2-25.4-6.6-33.9-4.9-7.8-16-15.1-26.2-17-7.4-1.5-18.3-1.9-23.8-1M239.3 31c-10 3.3-16.4 12.2-16.2 22.6v3.9l1.3-4c4-12.7 12.3-19.1 25.8-20 6.4-.4 6.7-.3 2.8.5-6.4 1.4-14.5 5.6-17.5 9.2-2.7 3.2-7.5 12-7.5 13.7 0 1.5 10.4 3.3 14.6 2.5 5.1-.9 9.3-5 13.9-13.5 2.2-4 5.3-8.8 6.8-10.6l2.9-3.3-2.9-1.1c-5.5-2.1-17.3-2.1-24 .1M28 168v98h40v-23c0-12.7.4-23 .8-23 .5 0 11.1 10.3 23.6 23l22.7 23H195V148h-85.5l-20 20c-11 11-20.3 20-20.7 20-.5 0-.8-26.6-.8-59V70H28zm127 36.7-.1 49.8-24.5-24.8C116.9 216 106 204.5 106.2 204c.5-1.2 47.2-48.8 48.1-48.9.4-.1.7 22.3.7 49.6m49-36.7v98h40V70h-40zm-38-89c-18.8 8.8-19.5 33.7-1.3 42.6 4.7 2.3 6.2 2.6 12.4 2.2 8.6-.7 13.8-3.8 18.3-11.1 7.2-11.7 2.7-26.9-9.9-33.4-4.9-2.6-14.3-2.7-19.5-.3m97 .1c-9.4 4.2-14 11.3-14.1 21.3-.1 7.6 2.1 12.6 7.9 17.8 5.1 4.6 9.9 6.1 17.8 5.6 7.5-.5 13-3.7 17.9-10.7 2.7-3.9 3-5 3-12.4 0-7.3-.3-8.6-2.8-12.4-6.9-10.1-19.3-13.9-29.7-9.2m286.5 67.5c-20.2 3.8-39 17.3-46.9 33.7-2 4.1-3.7 8.3-3.7 9.3-.1 1-.7-2-1.4-6.7-2.4-16.4-8.8-25.8-21.7-31.9-8.3-3.9-15.6-5.3-25.4-4.8-10.7.6-20.1 5-29.3 13.8-3.5 3.3-6.7 5.7-7.1 5.3-.3-.4-2.2-2.9-4.2-5.4-2.4-3-6-5.8-10.5-8.2-17.3-9.1-39.4-6.9-52.6 5.2-2.4 2.2-4.7 3.8-5 3.4-.4-.3-.7-3.3-.7-6.5V148h-40v118h39.9l.3-37.3c.3-35.9.4-37.3 2.5-41.2 3.5-6.5 6.5-8.8 12.7-9.3 10.6-.9 16.4 1.9 20.2 9.5 1.7 3.4 1.9 7.3 2.4 40.8l.5 37h40l.5-38.7c.5-37.2.6-38.8 2.6-41.5 3.8-5.2 8.1-7.3 14.6-7.3 9.6 0 14.8 3.2 18.5 11.5 1.6 3.6 1.8 7.9 2.1 40l.2 36 20 .3 20 .2v-21.7l.1-21.8 1.8 5.1c4.3 11.8 11.5 20.8 22.6 28.3 13.9 9.3 27.8 12.7 48.5 11.8 16.8-.7 27.8-4.3 40.2-13.3 19.6-14.4 28.3-39.7 21.7-63.4-3.1-11.3-7.2-18.1-15.9-26.4-8.4-8-19.5-14.3-30.5-17.1-8.7-2.3-27.3-2.8-37-.9m27.1 34.8c6.9 3.2 11.8 8.4 14.3 15.1 7.3 19.6-6.6 38.7-27.2 37.3-14.8-.9-24.4-11.3-24.6-26.3-.2-12.3 4.3-19.9 14.8-25.3 8.1-4.1 15.1-4.3 22.7-.8M252 207v59h40V148h-40zm-30 130v30h37v-6.9l-14.7-.3-14.8-.3-.3-26.3-.2-26.2h-7zm58 0v30h8v-60h-8zm36 0v30h7l.2-23.2.3-23.3 16.4 23.3c15.8 22.4 16.5 23.2 19.7 23.2h3.4v-60h-7v23.1c0 12.6-.4 22.8-.8 22.5-.5-.3-8-10.7-16.7-23.1-15.3-21.5-16.1-22.5-19.2-22.5H316zm75 0v30h7v-27h15.6l7.3 13.1c4.1 7.2 7.9 13.3 8.6 13.6.7.2 2.7.3 4.4.1l3.1-.3-8.4-14.8-8.3-14.9 2.4-2.4c2.7-2.7 4.7-6.8 9.2-19.2l3-8.2h-7.6l-3.8 9.9c-5.1 13.6-8.1 16.1-19.6 16.1H398v-26h-7z"/></svg>